<svg width="22" height="22" viewBox="0 0 22 22" fill="none" xmlns="http://www.w3.org/2000/svg">
<path d="M5.99956 10.1667C7.38006 10.1667 8.49931 9.04749 8.49931 7.66699C8.49931 6.28649 7.38098 5.16632 5.99956 5.16632H1.83331V16.8327" stroke="#01FFF0" stroke-width="1.5" stroke-linecap="round" stroke-linejoin="round"/>
<path d="M1.83331 16.8337H6.83373C8.6744 16.8337 10.1667 15.3413 10.1667 13.5007C10.1667 11.66 8.6744 10.1677 6.83373 10.1677H1.83331" stroke="#01FFF0" stroke-width="1.5" stroke-linecap="round" stroke-linejoin="round"/>
<path d="M14.3367 6.82918H18.4983" stroke="#01FFF0" stroke-width="1.5" stroke-linecap="round" stroke-linejoin="round"/>
<path d="M19.0685 15.7346C18.3361 16.467 17.3763 16.8327 16.4166 16.8327C14.3458 16.8327 12.6665 15.1534 12.6665 13.0827C12.6665 11.0119 14.3458 9.33258 16.4166 9.33258C18.4873 9.33258 20.1667 11.0119 20.1667 13.0836H12.6665" stroke="#01FFF0" stroke-width="1.5" stroke-linecap="round" stroke-linejoin="round"/>
</svg>
