<svg width="22" height="22" viewBox="0 0 22 22" fill="none" xmlns="http://www.w3.org/2000/svg">
<path fill-rule="evenodd" clip-rule="evenodd" d="M6.87133 2.75H15.1296C17.4048 2.75 19.25 4.59433 19.25 6.87133V15.1296C19.25 17.4048 17.4057 19.25 15.1287 19.25H6.87133C4.59525 19.25 2.75 17.4057 2.75 15.1287V6.87133C2.75 4.59525 4.59433 2.75 6.87133 2.75V2.75Z" stroke="#01FFF0" stroke-width="1.5" stroke-linecap="round" stroke-linejoin="round"/>
<path d="M15.5366 6.1536C15.3661 6.15451 15.2277 6.29293 15.2277 6.46343C15.2277 6.63393 15.367 6.77235 15.5375 6.77235C15.708 6.77235 15.8464 6.63393 15.8464 6.46343C15.8474 6.29201 15.708 6.1536 15.5366 6.1536" stroke="#01FFF0" stroke-width="1.5" stroke-linecap="round" stroke-linejoin="round"/>
<path d="M13.3335 8.66656C14.6222 9.95529 14.6222 12.0447 13.3335 13.3335C12.0447 14.6222 9.95529 14.6222 8.66656 13.3335C7.37783 12.0447 7.37783 9.95529 8.66656 8.66656C9.95529 7.37783 12.0447 7.37783 13.3335 8.66656" stroke="#01FFF0" stroke-width="1.5" stroke-linecap="round" stroke-linejoin="round"/>
</svg>
