<svg width="22" height="22" viewBox="0 0 22 22" fill="none" xmlns="http://www.w3.org/2000/svg">
<path fill-rule="evenodd" clip-rule="evenodd" d="M6.875 2.75H15.1287C17.4048 2.75 19.25 4.59525 19.25 6.87133V15.1296C19.25 17.4048 17.4048 19.25 15.1287 19.25H6.87133C4.59525 19.25 2.75 17.4048 2.75 15.1287V6.875C2.75 4.59708 4.59708 2.75 6.875 2.75V2.75Z" stroke="#01FFF0" stroke-width="1.5" stroke-linecap="round" stroke-linejoin="round"/>
<path d="M7.44332 10.175V15.125" stroke="#01FFF0" stroke-width="1.5" stroke-linecap="round" stroke-linejoin="round"/>
<path d="M10.7424 15.125V12.2375C10.7424 11.0981 11.6655 10.175 12.8049 10.175V10.175C13.9443 10.175 14.8674 11.0981 14.8674 12.2375V15.125" stroke="#01FFF0" stroke-width="1.5" stroke-linecap="round" stroke-linejoin="round"/>
<path d="M7.44149 7.18482C7.32782 7.18482 7.23524 7.27741 7.23616 7.39107C7.23616 7.50474 7.32874 7.59732 7.44241 7.59732C7.55607 7.59732 7.64866 7.50474 7.64866 7.39107C7.64866 7.27649 7.55607 7.18482 7.44149 7.18482" stroke="#01FFF0" stroke-width="1.5" stroke-linecap="round" stroke-linejoin="round"/>
</svg>
